# xmcd CD database file
# Copyright (C) 1997 Ti Kan
# 
# Track frame offsets:
#     190
#     14617
#     28842
#     42675
#     56335
#     70257
#     84745
#     95575
#     111227
#     126552
#     139222
#     157712
#     170002
#     182815
#     196640
#     213170
# 
# Disc length: 3033 seconds
# 
# Revision: 1
# Processed by: cddbd v1.4b41PL1 Copyright (c) Steve Scherf et al.
# Submitted via: DiscPlay 4.0.4
# 
DISCID=e70bd710
DTITLE=Don Williams - Golden Greats
DYEAR=1900
DGENRE=
TTITLE0=Amanda
TTITLE1=Come Early Morning
TTITLE2=We Should Be Together
TTITLE3=I Wouldn't Want To Live If You Didn't Love Me
TTITLE4=I'm Just A Country Boy
TTITLE5=Tulsa Time
TTITLE6=Turn Out The Light And Love Me Tonight
TTITLE7=Till The Rivers All Run Dry
TTITLE8=I Recall A Gypsy Woman
TTITLE9=You're My Best Friend
TTITLE10=I Believe In You
TTITLE11=Years From Now
TTITLE12=The Story Of My Life
TTITLE13=Stay Young
TTITLE14=Love Is On A Roll
TTITLE15=Listen To The Radio
EXTD=
EXTT0=
EXTT1=
EXTT2=
EXTT3=
EXTT4=
EXTT5=
EXTT6=
EXTT7=
EXTT8=
EXTT9=
EXTT10=
EXTT11=
EXTT12=
EXTT13=
EXTT14=
EXTT15=
PLAYORDER=
